<svg width="39" height="38" viewBox="0 0 39 38" fill="none" xmlns="http://www.w3.org/2000/svg">
<path d="M17.4502 1.97736C18.0421 0.120639 20.6693 0.120635 21.2612 1.97736L24.38 11.7605C24.6444 12.5899 25.415 13.153 26.2855 13.153H36.4579C38.3861 13.153 39.1977 15.6128 37.6481 16.7603L29.3534 22.9027C28.6657 23.4119 28.3782 24.3022 28.6381 25.1174L31.7908 35.0072C32.3804 36.8566 30.255 38.3771 28.6951 37.222L20.546 31.1875C19.8389 30.6638 18.8726 30.6638 18.1655 31.1875L10.0164 37.222C8.45647 38.3771 6.33109 36.8566 6.92064 35.0073L10.0734 25.1174C10.3333 24.3022 10.0458 23.4119 9.35811 22.9027L1.06338 16.7603C-0.486212 15.6128 0.325392 13.153 2.2536 13.153H12.4259C13.2965 13.153 14.067 12.5899 14.3315 11.7605L17.4502 1.97736Z" fill="#FC5185"/>
</svg>
